<svg aria-hidden="true" style="position:absolute;width:0;height:0" xmlns="http://www.w3.org/2000/svg" overflow="hidden">
  <defs>
<symbol id="instagram" viewBox="0 0 32 32">
      <path d="M28.718 10.756a9.264 9.264 0 0 0-.596-3.145 6.547 6.547 0 0 0-3.743-3.737 9.42 9.42 0 0 0-3.108-.596c-1.368-.061-1.801-.078-5.273-.078s-3.916 0-5.274.078a9.418 9.418 0 0 0-3.106.596 6.541 6.541 0 0 0-3.743 3.737 9.288 9.288 0 0 0-.596 3.101c-.061 1.367-.08 1.8-.08 5.265s0 3.909.08 5.265a9.335 9.335 0 0 0 .596 3.104 6.55 6.55 0 0 0 3.744 3.736c.989.386 2.04.604 3.106.639 1.369.061 1.803.08 5.274.08s3.916 0 5.274-.08a9.362 9.362 0 0 0 3.108-.595 6.555 6.555 0 0 0 3.743-3.737 9.35 9.35 0 0 0 .596-3.104c.061-1.365.08-1.798.08-5.265-.003-3.466-.003-3.906-.082-5.264zM15.99 22.531c-3.631 0-6.572-2.936-6.572-6.561s2.941-6.561 6.572-6.561c3.628 0 6.572 2.936 6.572 6.561s-2.944 6.561-6.572 6.561zm6.834-11.835a1.53 1.53 0 1 1 0-3.06 1.53 1.53 0 1 1 0 3.06z"/>
      <path d="M15.992 19.976a4.004 4.004 0 1 0 0-8.009 4.004 4.004 0 0 0 0 8.009z"/>
    </symbol>
    <symbol id="youtube" viewBox="0 0 32 32">
      <path d="M31.68 9.507s-.32-2.311-1.28-3.302c-1.173-1.321-2.56-1.321-3.2-1.431-4.48-.33-11.2-.33-11.2-.33s-6.72 0-11.2.33c-.64.11-2.027.11-3.2 1.431C.64 7.195.32 9.507.32 9.507S0 12.148 0 14.79v2.421c0 2.641.32 5.393.32 5.393s.32 2.311 1.28 3.302c1.173 1.321 2.773 1.321 3.52 1.431 2.56.11 10.88.22 10.88.22s6.72 0 11.2-.33c.64-.11 2.027-.11 3.2-1.431.96-.99 1.28-3.302 1.28-3.302s.32-2.641.32-5.283V14.79c0-2.641-.32-5.283-.32-5.283zM12.693 20.292v-9.244l8.64 4.622-8.64 4.622z"/>
    </symbol>
    <symbol id="facebook" viewBox="0 0 32 32">
      <path d="M20.693 1.92h1.28v4.8h-1.6c-.64 0-1.28 0-1.6.32-.32.32-.32.64-.32 1.387v1.707h3.52v4.053h-3.52v17.6h-5.44V14.08h-2.88v-4.053h2.88V8.64c0-2.347.32-4.053.96-4.8.96-1.387 2.88-2.027 5.76-2.027.32.107.64.107.96.107z"/>
    </symbol>
    <symbol id="menu" viewBox="0 0 32 32">
      <path d="M28 13.3334H4" stroke-width="2" stroke-linecap="round" stroke-linejoin="round"/>
      <path d="M28 8H4" stroke-width="2" stroke-linecap="round" stroke-linejoin="round"/>
      <path d="M28 18.6666H4" stroke-width="2" stroke-linecap="round" stroke-linejoin="round"/>
      <path d="M28 24H4" stroke-width="2" stroke-linecap="round" stroke-linejoin="round"/>
      <path d="M28 24H4" stroke-width="2" stroke-linecap="round" stroke-linejoin="round"/>
    </symbol>
    <symbol fill="none" xmlns="http://www.w3.org/2000/svg" viewBox="0 0 40 32" id="quote">
      <path d="M0 32V21.2941C0 17.2941 0.716418 13.6079 2.14925 10.2353C3.58209 6.86275 6.00995 3.45098 9.43284 0L15.6418 4.82353C13.6517 6.78432 12.1393 8.62746 11.1045 10.3529C10.0697 12.0784 9.39303 13.8431 9.07463 15.6471H16.7164V32H0ZM23.2836 32V21.2941C23.2836 17.2941 24 13.6079 25.4328 10.2353C26.8657 6.86275 29.2935 3.45098 32.7164 0L38.9254 4.82353C36.9353 6.78432 35.4229 8.62746 34.3881 10.3529C33.3532 12.0784 32.6766 13.8431 32.3582 15.6471H40V32H23.2836Z" fill="#BFBEBE"></path>
    </symbol>
</defs>
</svg>
